<svg width="1920" height="121" viewBox="0 0 1920 121" fill="none" xmlns="http://www.w3.org/2000/svg">
<rect width="1920" height="121" fill="#212121"/>
<path d="M329.695 61.7C328.749 61.7 327.902 61.5067 327.155 61.12C326.422 60.7333 325.842 60.1333 325.415 59.32C325.002 58.5067 324.795 57.4667 324.795 56.2C324.795 54.88 325.015 53.8067 325.455 52.98C325.895 52.1533 326.489 51.5467 327.235 51.16C327.995 50.7733 328.855 50.58 329.815 50.58C330.362 50.58 330.889 50.64 331.395 50.76C331.902 50.8667 332.315 51 332.635 51.16L332.095 52.62C331.775 52.5 331.402 52.3867 330.975 52.28C330.549 52.1733 330.149 52.12 329.775 52.12C329.055 52.12 328.462 52.2733 327.995 52.58C327.529 52.8867 327.182 53.34 326.955 53.94C326.729 54.54 326.615 55.2867 326.615 56.18C326.615 57.0333 326.729 57.76 326.955 58.36C327.182 58.96 327.522 59.4133 327.975 59.72C328.429 60.0267 328.995 60.18 329.675 60.18C330.262 60.18 330.775 60.12 331.215 60C331.669 59.88 332.082 59.7333 332.455 59.56V61.12C332.095 61.3067 331.695 61.4467 331.255 61.54C330.829 61.6467 330.309 61.7 329.695 61.7Z" fill="#00C2FF"/>
<path d="M240.043 75.7129C239.587 75.7129 239.18 75.791 238.822 75.9473C238.464 76.1003 238.161 76.3184 237.914 76.6016C237.667 76.8848 237.478 77.2233 237.348 77.6172C237.217 78.0078 237.152 78.4391 237.152 78.9111C237.152 79.5622 237.255 80.1318 237.46 80.6201C237.665 81.1051 237.973 81.4811 238.383 81.748C238.796 82.015 239.311 82.1484 239.926 82.1484C240.284 82.1484 240.609 82.1224 240.902 82.0703C241.195 82.015 241.467 81.945 241.718 81.8604V82.2998C241.48 82.3877 241.212 82.4593 240.912 82.5146C240.616 82.57 240.271 82.5977 239.877 82.5977C239.164 82.5977 238.565 82.4447 238.08 82.1387C237.598 81.8327 237.235 81.403 236.991 80.8496C236.747 80.2962 236.625 79.6501 236.625 78.9111C236.625 78.3805 236.701 77.8939 236.854 77.4512C237.007 77.0052 237.23 76.6195 237.523 76.2939C237.82 75.9652 238.179 75.7113 238.603 75.5322C239.026 75.3499 239.507 75.2588 240.048 75.2588C240.39 75.2588 240.715 75.293 241.024 75.3613C241.337 75.4264 241.63 75.5225 241.903 75.6494L241.708 76.0889C241.444 75.9587 241.174 75.8643 240.897 75.8057C240.621 75.7438 240.336 75.7129 240.043 75.7129ZM244.722 82.5V75.3613H249.844V82.5H249.351V75.8154H245.225V82.5H244.722ZM259.376 78.9209C259.376 79.4645 259.309 79.9609 259.176 80.4102C259.042 80.8594 258.842 81.2467 258.575 81.5723C258.308 81.8978 257.975 82.1501 257.574 82.3291C257.177 82.5081 256.713 82.5977 256.183 82.5977C255.649 82.5977 255.182 82.5081 254.781 82.3291C254.381 82.1501 254.047 81.8978 253.78 81.5723C253.517 81.2435 253.318 80.8545 253.185 80.4053C253.051 79.9528 252.984 79.4548 252.984 78.9111C252.984 78.1885 253.106 77.5521 253.351 77.002C253.598 76.4518 253.961 76.0221 254.439 75.7129C254.921 75.4036 255.515 75.249 256.222 75.249C256.899 75.249 257.472 75.3971 257.94 75.6934C258.412 75.9863 258.769 76.4079 259.01 76.958C259.254 77.5049 259.376 78.1592 259.376 78.9209ZM253.512 78.916C253.512 79.554 253.608 80.1172 253.8 80.6055C253.992 81.0905 254.286 81.4697 254.684 81.7432C255.081 82.0166 255.582 82.1533 256.188 82.1533C256.799 82.1533 257.302 82.0182 257.696 81.748C258.09 81.4779 258.382 81.1003 258.57 80.6152C258.759 80.1302 258.854 79.5654 258.854 78.9209C258.854 77.902 258.631 77.111 258.185 76.5479C257.742 75.9847 257.088 75.7031 256.222 75.7031C255.613 75.7031 255.107 75.8382 254.703 76.1084C254.303 76.3786 254.003 76.7546 253.805 77.2363C253.609 77.7181 253.512 78.278 253.512 78.916ZM264.27 75.3613C265.119 75.3613 265.756 75.5241 266.179 75.8496C266.602 76.1751 266.813 76.6813 266.813 77.3682C266.813 77.7197 266.757 78.0322 266.643 78.3057C266.532 78.5758 266.364 78.8037 266.14 78.9893C265.915 79.1748 265.633 79.3148 265.295 79.4092C264.96 79.5036 264.567 79.5508 264.118 79.5508H263.02V82.5H262.517V75.3613H264.27ZM264.216 75.8057H263.02V79.1064H264.069C264.532 79.1064 264.929 79.0544 265.261 78.9502C265.593 78.8428 265.848 78.6637 266.027 78.4131C266.206 78.1624 266.296 77.8206 266.296 77.3877C266.296 76.8376 266.127 76.4372 265.788 76.1865C265.45 75.9326 264.925 75.8057 264.216 75.8057ZM271.731 82.5H271.224V75.8154H268.909V75.3613H274.046V75.8154H271.731V82.5ZM276.615 75.3613H277.094V80.4492C277.094 80.5632 277.092 80.6787 277.089 80.7959C277.089 80.9098 277.087 81.0221 277.084 81.1328C277.081 81.2402 277.077 81.3444 277.074 81.4453C277.071 81.543 277.066 81.6341 277.06 81.7188H277.089L281.293 75.3613H281.806V82.5H281.327V77.4951C281.327 77.3617 281.329 77.2314 281.332 77.1045C281.335 76.9775 281.339 76.8555 281.342 76.7383C281.345 76.6211 281.348 76.512 281.352 76.4111C281.358 76.307 281.363 76.2126 281.366 76.1279H281.337L277.138 82.5H276.615V75.3613ZM285.327 75.3613H287.285C288.167 75.3613 288.812 75.4997 289.219 75.7764C289.629 76.0531 289.834 76.4941 289.834 77.0996C289.834 77.373 289.78 77.6221 289.673 77.8467C289.569 78.0713 289.412 78.2601 289.204 78.4131C288.999 78.5628 288.745 78.6654 288.442 78.7207V78.7549C288.804 78.8102 289.102 78.9111 289.336 79.0576C289.574 79.2008 289.749 79.3913 289.863 79.6289C289.98 79.8633 290.039 80.1432 290.039 80.4688C290.039 80.9375 289.932 81.3216 289.717 81.6211C289.505 81.9206 289.211 82.1419 288.833 82.2852C288.455 82.4284 288.019 82.5 287.524 82.5H285.327V75.3613ZM285.83 78.5352H287.412C288.083 78.5352 288.568 78.418 288.867 78.1836C289.167 77.9492 289.316 77.6025 289.316 77.1436C289.316 76.6683 289.155 76.3265 288.833 76.1182C288.511 75.9098 287.995 75.8057 287.285 75.8057H285.83V78.5352ZM285.83 78.9746V82.0557H287.51C288.171 82.0557 288.669 81.9222 289.004 81.6553C289.339 81.3851 289.507 80.9831 289.507 80.4492C289.507 80.0977 289.429 79.8145 289.272 79.5996C289.116 79.3815 288.882 79.2236 288.569 79.126C288.26 79.0251 287.874 78.9746 287.412 78.9746H285.83ZM298.272 82.5H297.77V78.9844H293.6V82.5H293.097V75.3613H293.6V78.5254H297.77V75.3613H298.272V82.5ZM301.794 82.5V75.3613H302.297V78.4961H303.645C304.191 78.4961 304.646 78.5661 305.007 78.7061C305.371 78.846 305.643 79.0592 305.822 79.3457C306.001 79.6322 306.091 79.9984 306.091 80.4443C306.091 81.1084 305.894 81.6178 305.5 81.9727C305.109 82.3242 304.528 82.5 303.757 82.5H301.794ZM302.297 82.0557H303.684C304.325 82.0557 304.8 81.9271 305.109 81.6699C305.419 81.4095 305.573 81.001 305.573 80.4443C305.573 80.057 305.495 79.7542 305.339 79.5361C305.183 79.318 304.956 79.1667 304.66 79.082C304.364 78.9941 304.003 78.9502 303.576 78.9502H302.297V82.0557ZM307.097 82.5V75.3613H307.6V82.5H307.097ZM311.316 75.3613H311.795V80.4492C311.795 80.5632 311.793 80.6787 311.79 80.7959C311.79 80.9098 311.788 81.0221 311.785 81.1328C311.782 81.2402 311.779 81.3444 311.775 81.4453C311.772 81.543 311.767 81.6341 311.761 81.7188H311.79L315.994 75.3613H316.507V82.5H316.028V77.4951C316.028 77.3617 316.03 77.2314 316.033 77.1045C316.036 76.9775 316.04 76.8555 316.043 76.7383C316.046 76.6211 316.049 76.512 316.053 76.4111C316.059 76.307 316.064 76.2126 316.067 76.1279H316.038L311.839 82.5H311.316V75.3613ZM315.574 73.2373C315.555 73.5498 315.48 73.807 315.35 74.0088C315.223 74.2106 315.042 74.362 314.808 74.4629C314.573 74.5605 314.29 74.6094 313.958 74.6094C313.623 74.6094 313.341 74.5622 313.113 74.4678C312.889 74.3701 312.715 74.2204 312.591 74.0186C312.47 73.8135 312.402 73.5531 312.386 73.2373H312.854C312.887 73.5954 312.99 73.8525 313.162 74.0088C313.338 74.1618 313.605 74.2383 313.963 74.2383C314.311 74.2383 314.58 74.1618 314.769 74.0088C314.961 73.8558 315.071 73.5986 315.101 73.2373H315.574ZM328.799 82.5H328.159L324.629 78.8623V82.5H324.126V75.3613H324.629V78.8184L328.057 75.3613H328.691L325.249 78.8281L328.799 82.5ZM336.144 82.5H335.646V75.8154H333.062C333.027 76.1507 332.986 76.5088 332.94 76.8896C332.895 77.2705 332.844 77.6595 332.789 78.0566C332.737 78.4505 332.682 78.8379 332.623 79.2188C332.568 79.5996 332.506 79.9577 332.438 80.293C332.353 80.752 332.252 81.1556 332.135 81.5039C332.018 81.8522 331.861 82.124 331.666 82.3193C331.471 82.5146 331.21 82.6123 330.885 82.6123C330.768 82.6123 330.662 82.6025 330.567 82.583C330.476 82.5635 330.395 82.5391 330.323 82.5098V82.0654C330.398 82.0947 330.476 82.1208 330.558 82.1436C330.642 82.1631 330.738 82.1729 330.846 82.1729C331.074 82.1729 331.256 82.085 331.393 81.9092C331.533 81.7301 331.646 81.4909 331.734 81.1914C331.822 80.8887 331.899 80.5501 331.964 80.1758C332.032 79.8047 332.097 79.4173 332.159 79.0137C332.221 78.6068 332.28 78.1934 332.335 77.7734C332.39 77.3535 332.444 76.9401 332.496 76.5332C332.548 76.123 332.595 75.7324 332.638 75.3613H336.144V82.5ZM344.523 75.3613L342.014 80.8691C341.854 81.2174 341.685 81.5218 341.506 81.7822C341.33 82.0426 341.118 82.2445 340.871 82.3877C340.624 82.5277 340.314 82.5977 339.943 82.5977C339.748 82.5977 339.58 82.583 339.44 82.5537C339.3 82.5244 339.177 82.4902 339.069 82.4512V81.9434C339.19 82.002 339.32 82.0475 339.46 82.0801C339.6 82.1126 339.751 82.1289 339.914 82.1289C340.191 82.1289 340.424 82.0736 340.612 81.9629C340.804 81.8522 340.972 81.6911 341.115 81.4795C341.258 81.2646 341.397 81.0026 341.53 80.6934L338.742 75.3613H339.294L341.506 79.624C341.545 79.6956 341.579 79.7656 341.608 79.834C341.641 79.8991 341.672 79.9658 341.701 80.0342C341.73 80.0993 341.76 80.1693 341.789 80.2441H341.809C341.835 80.1823 341.862 80.1172 341.892 80.0488C341.921 79.9772 341.95 79.9072 341.979 79.8389C342.009 79.7705 342.036 79.7087 342.062 79.6533L343.986 75.3613H344.523ZM347.044 82.5V75.3613H351.033V75.8154H347.547V78.4961H348.88C349.446 78.4961 349.912 78.5661 350.276 78.7061C350.641 78.8428 350.911 79.0544 351.087 79.3408C351.266 79.6273 351.355 79.9951 351.355 80.4443C351.355 81.1149 351.16 81.626 350.77 81.9775C350.382 82.3258 349.791 82.5 348.997 82.5H347.044ZM347.547 82.0557H348.924C349.588 82.0557 350.071 81.9271 350.374 81.6699C350.68 81.4095 350.833 81.001 350.833 80.4443C350.833 80.057 350.757 79.7542 350.604 79.5361C350.451 79.318 350.223 79.165 349.92 79.0771C349.62 78.9893 349.249 78.9453 348.807 78.9453H347.547V82.0557Z" fill="#FF7A00"/>
<path d="M205.814 47.9409L211.052 50.7304L208.272 55.9873L203.035 53.1978L205.814 47.9409Z" fill="#00C2FF"/>
<path d="M207.018 45.6629C208.553 42.7595 212.143 41.6548 215.036 43.1954L211.052 50.7304L205.814 47.9409L207.018 45.6629Z" fill="#00C2FF"/>
<path d="M203.035 53.1978L208.272 55.9873L205.493 61.2442L200.255 58.4547L203.035 53.1978Z" fill="#00C2FF"/>
<path d="M200.255 58.4547L205.493 61.2442L202.714 66.5012L197.476 63.7117L200.255 58.4547Z" fill="#00C2FF"/>
<path d="M197.476 63.7117L202.714 66.5012L199.934 71.7581L194.696 68.9686L197.476 63.7117Z" fill="#00C2FF"/>
<path d="M194.696 68.9686L199.934 71.7581L197.155 77.015L191.917 74.2255L194.696 68.9686Z" fill="#00C2FF"/>
<path d="M191.917 74.2255L197.155 77.015C195.62 79.9184 192.03 81.0231 189.138 79.4825L191.917 74.2255Z" fill="#00C2FF"/>
<path d="M205.493 61.2442L210.731 64.0338L207.952 69.2907L202.714 66.5012L205.493 61.2442Z" fill="#00C2FF"/>
<path d="M205.814 47.9409L200.576 45.1513L197.797 50.4083L203.035 53.1978L205.814 47.9409Z" fill="#FF7A00"/>
<path d="M208.272 55.9873L213.51 58.7768L216.29 53.5199L211.052 50.7304L208.272 55.9873Z" fill="#FF7A00"/>
<path d="M210.731 64.0338L215.969 66.8233L213.189 72.0802L207.952 69.2907L210.731 64.0338Z" fill="#00C2FF"/>
<path d="M200.576 45.1513C197.683 43.6107 194.094 44.7154 192.559 47.6188L197.797 50.4083L200.576 45.1513Z" fill="#FF7A00"/>
<path d="M213.51 58.7768C216.403 60.3174 219.993 59.2127 221.528 56.3094L216.29 53.5199L213.51 58.7768Z" fill="#FF7A00"/>
<path d="M207.952 69.2907L213.189 72.0802L210.41 77.3371L205.172 74.5476L207.952 69.2907Z" fill="#00C2FF"/>
<path d="M197.797 50.4083L192.559 47.6188L189.779 52.8757L195.017 55.6652L197.797 50.4083Z" fill="#FF7A00"/>
<path d="M216.29 53.5199L221.528 56.3094L224.307 51.0525L219.069 48.263L216.29 53.5199Z" fill="#FF7A00"/>
<path d="M205.172 74.5476L210.41 77.3371C208.875 80.2405 205.286 81.3452 202.393 79.8046L205.172 74.5476Z" fill="#00C2FF"/>
<path d="M195.017 55.6652L189.779 52.8757L187 58.1326C189.893 59.6732 193.482 58.5685 195.017 55.6652Z" fill="#FF7A00"/>
<path d="M219.069 48.263L224.307 51.0525C225.842 48.1492 224.741 44.5466 221.849 43.006L219.069 48.263Z" fill="#FF7A00"/>
<path d="M769.125 58.5781C770.599 58.5781 771.674 58.8802 772.352 59.4844C773.029 60.0885 773.367 60.9349 773.367 62.0234C773.367 62.5182 773.289 62.9896 773.133 63.4375C772.982 63.8802 772.732 64.2734 772.383 64.6172C772.034 64.9557 771.573 65.224 771 65.4219C770.432 65.6198 769.732 65.7188 768.898 65.7188H767.68V70H765.805V58.5781H769.125ZM769 60.1328H767.68V64.1562H768.703C769.292 64.1562 769.792 64.0885 770.203 63.9531C770.615 63.8125 770.927 63.5911 771.141 63.2891C771.354 62.987 771.461 62.5885 771.461 62.0938C771.461 61.4323 771.26 60.9401 770.859 60.6172C770.464 60.2943 769.844 60.1328 769 60.1328ZM782.727 70L781.609 66.8281H777.242L776.125 70H774.148L778.398 58.5312H780.477L784.719 70H782.727ZM781.125 65.2188L780.039 62.0938C779.997 61.9583 779.938 61.7682 779.859 61.5234C779.781 61.2734 779.703 61.0208 779.625 60.7656C779.547 60.5052 779.482 60.2865 779.43 60.1094C779.378 60.3229 779.312 60.5625 779.234 60.8281C779.161 61.0885 779.089 61.3333 779.016 61.5625C778.948 61.7917 778.896 61.9688 778.859 62.0938L777.766 65.2188H781.125ZM791.094 60.0078C790.547 60.0078 790.057 60.1068 789.625 60.3047C789.198 60.5026 788.836 60.7891 788.539 61.1641C788.242 61.5339 788.016 61.9844 787.859 62.5156C787.703 63.0417 787.625 63.6354 787.625 64.2969C787.625 65.1823 787.75 65.9453 788 66.5859C788.25 67.2214 788.63 67.7109 789.141 68.0547C789.651 68.3932 790.297 68.5625 791.078 68.5625C791.562 68.5625 792.034 68.5156 792.492 68.4219C792.951 68.3281 793.424 68.2005 793.914 68.0391V69.6328C793.451 69.8151 792.982 69.9479 792.508 70.0312C792.034 70.1146 791.487 70.1562 790.867 70.1562C789.701 70.1562 788.732 69.9141 787.961 69.4297C787.195 68.9453 786.622 68.263 786.242 67.3828C785.867 66.5026 785.68 65.4714 785.68 64.2891C785.68 63.4245 785.799 62.6328 786.039 61.9141C786.279 61.1953 786.628 60.5755 787.086 60.0547C787.544 59.5286 788.109 59.125 788.781 58.8438C789.458 58.5573 790.232 58.4141 791.102 58.4141C791.674 58.4141 792.237 58.4792 792.789 58.6094C793.346 58.7344 793.862 58.9141 794.336 59.1484L793.68 60.6953C793.284 60.5078 792.87 60.3464 792.438 60.2109C792.005 60.0755 791.557 60.0078 791.094 60.0078ZM796.367 70V58.5781H805.141V70H803.281V60.1719H798.242V70H796.367ZM808.172 58.5781H809.883V64.6328C809.883 64.8932 809.88 65.1797 809.875 65.4922C809.87 65.8047 809.859 66.1094 809.844 66.4062C809.833 66.7031 809.823 66.9688 809.812 67.2031C809.802 67.4323 809.792 67.599 809.781 67.7031H809.836L815.648 58.5781H817.828V70H816.133V63.9922C816.133 63.7109 816.138 63.4062 816.148 63.0781C816.159 62.75 816.172 62.4323 816.188 62.125C816.203 61.8177 816.219 61.5469 816.234 61.3125C816.25 61.0781 816.26 60.9115 816.266 60.8125H816.195L810.367 70H808.172V58.5781ZM825.703 60.0078C825.156 60.0078 824.667 60.1068 824.234 60.3047C823.807 60.5026 823.445 60.7891 823.148 61.1641C822.852 61.5339 822.625 61.9844 822.469 62.5156C822.312 63.0417 822.234 63.6354 822.234 64.2969C822.234 65.1823 822.359 65.9453 822.609 66.5859C822.859 67.2214 823.24 67.7109 823.75 68.0547C824.26 68.3932 824.906 68.5625 825.688 68.5625C826.172 68.5625 826.643 68.5156 827.102 68.4219C827.56 68.3281 828.034 68.2005 828.523 68.0391V69.6328C828.06 69.8151 827.591 69.9479 827.117 70.0312C826.643 70.1146 826.096 70.1562 825.477 70.1562C824.31 70.1562 823.341 69.9141 822.57 69.4297C821.805 68.9453 821.232 68.263 820.852 67.3828C820.477 66.5026 820.289 65.4714 820.289 64.2891C820.289 63.4245 820.409 62.6328 820.648 61.9141C820.888 61.1953 821.237 60.5755 821.695 60.0547C822.154 59.5286 822.719 59.125 823.391 58.8438C824.068 58.5573 824.841 58.4141 825.711 58.4141C826.284 58.4141 826.846 58.4792 827.398 58.6094C827.956 58.7344 828.471 58.9141 828.945 59.1484L828.289 60.6953C827.893 60.5078 827.479 60.3464 827.047 60.2109C826.615 60.0755 826.167 60.0078 825.703 60.0078ZM838.055 70L836.938 66.8281H832.57L831.453 70H829.477L833.727 58.5312H835.805L840.047 70H838.055ZM836.453 65.2188L835.367 62.0938C835.326 61.9583 835.266 61.7682 835.188 61.5234C835.109 61.2734 835.031 61.0208 834.953 60.7656C834.875 60.5052 834.81 60.2865 834.758 60.1094C834.706 60.3229 834.641 60.5625 834.562 60.8281C834.49 61.0885 834.417 61.3333 834.344 61.5625C834.276 61.7917 834.224 61.9688 834.188 62.0938L833.094 65.2188H836.453ZM850.562 70H848.695V64.8438H843.43V70H841.555V58.5781H843.43V63.25H848.695V58.5781H850.562V70ZM853.594 58.5781H855.305V64.6328C855.305 64.8932 855.302 65.1797 855.297 65.4922C855.292 65.8047 855.281 66.1094 855.266 66.4062C855.255 66.7031 855.245 66.9688 855.234 67.2031C855.224 67.4323 855.214 67.599 855.203 67.7031H855.258L861.07 58.5781H863.25V70H861.555V63.9922C861.555 63.7109 861.56 63.4062 861.57 63.0781C861.581 62.75 861.594 62.4323 861.609 62.125C861.625 61.8177 861.641 61.5469 861.656 61.3125C861.672 61.0781 861.682 60.9115 861.688 60.8125H861.617L855.789 70H853.594V58.5781ZM872.727 70H866.258V58.5781H872.727V60.1562H868.133V63.2578H872.438V64.8281H868.133V68.4141H872.727V70Z" fill="#FAFAFA"/>
<path d="M923.625 70H921.742V60.1719H918.398V58.5781H926.961V60.1719H923.625V70ZM932.031 58.5781C933.505 58.5781 934.581 58.8802 935.258 59.4844C935.935 60.0885 936.273 60.9349 936.273 62.0234C936.273 62.5182 936.195 62.9896 936.039 63.4375C935.888 63.8802 935.638 64.2734 935.289 64.6172C934.94 64.9557 934.479 65.224 933.906 65.4219C933.339 65.6198 932.638 65.7188 931.805 65.7188H930.586V70H928.711V58.5781H932.031ZM931.906 60.1328H930.586V64.1562H931.609C932.198 64.1562 932.698 64.0885 933.109 63.9531C933.521 63.8125 933.833 63.5911 934.047 63.2891C934.26 62.987 934.367 62.5885 934.367 62.0938C934.367 61.4323 934.167 60.9401 933.766 60.6172C933.37 60.2943 932.75 60.1328 931.906 60.1328ZM945.023 70H938.555V58.5781H945.023V60.1562H940.43V63.2578H944.734V64.8281H940.43V68.4141H945.023V70ZM956.5 70H954.633V64.8438H949.367V70H947.492V58.5781H949.367V63.25H954.633V58.5781H956.5V70ZM965.992 70H959.523V58.5781H965.992V60.1562H961.398V63.2578H965.703V64.8281H961.398V68.4141H965.992V70ZM971.781 58.5781C973.255 58.5781 974.331 58.8802 975.008 59.4844C975.685 60.0885 976.023 60.9349 976.023 62.0234C976.023 62.5182 975.945 62.9896 975.789 63.4375C975.638 63.8802 975.388 64.2734 975.039 64.6172C974.69 64.9557 974.229 65.224 973.656 65.4219C973.089 65.6198 972.388 65.7188 971.555 65.7188H970.336V70H968.461V58.5781H971.781ZM971.656 60.1328H970.336V64.1562H971.359C971.948 64.1562 972.448 64.0885 972.859 63.9531C973.271 63.8125 973.583 63.5911 973.797 63.2891C974.01 62.987 974.117 62.5885 974.117 62.0938C974.117 61.4323 973.917 60.9401 973.516 60.6172C973.12 60.2943 972.5 60.1328 971.656 60.1328ZM978.305 70V58.5781H980.18V63.1953H981.484C982.531 63.1953 983.375 63.3411 984.016 63.6328C984.661 63.9193 985.133 64.3151 985.43 64.8203C985.727 65.3255 985.875 65.901 985.875 66.5469C985.875 67.6198 985.526 68.4635 984.828 69.0781C984.135 69.6927 983.039 70 981.539 70H978.305ZM980.18 68.4375H981.438C982.266 68.4375 982.893 68.2891 983.32 67.9922C983.747 67.6901 983.961 67.2083 983.961 66.5469C983.961 66.0833 983.859 65.724 983.656 65.4688C983.458 65.2135 983.159 65.0339 982.758 64.9297C982.362 64.8255 981.87 64.7734 981.281 64.7734H980.18V68.4375ZM987.438 70V58.5781H989.312V70H987.438Z" fill="#FAFAFA"/>
<path d="M1045.23 68.4531V73.1562H1043.43V70H1034.92V58.5781H1036.8V68.3984H1041.84V58.5781H1043.7V68.4531H1045.23ZM1053.55 70H1047.08V58.5781H1053.55V60.1562H1048.95V63.2578H1053.26V64.8281H1048.95V68.4141H1053.55V70ZM1065.02 70H1063.16V64.8438H1057.89V70H1056.02V58.5781H1057.89V63.25H1063.16V58.5781H1065.02V70ZM1068.05 70V58.5781H1069.92V63.1953H1071.23C1072.27 63.1953 1073.12 63.3411 1073.76 63.6328C1074.4 63.9193 1074.88 64.3151 1075.17 64.8203C1075.47 65.3255 1075.62 65.901 1075.62 66.5469C1075.62 67.6198 1075.27 68.4635 1074.57 69.0781C1073.88 69.6927 1072.78 70 1071.28 70H1068.05ZM1069.92 68.4375H1071.18C1072.01 68.4375 1072.64 68.2891 1073.06 67.9922C1073.49 67.6901 1073.7 67.2083 1073.7 66.5469C1073.7 66.0833 1073.6 65.724 1073.4 65.4688C1073.2 65.2135 1072.9 65.0339 1072.5 64.9297C1072.1 64.8255 1071.61 64.7734 1071.02 64.7734H1069.92V68.4375ZM1077.18 70V58.5781H1079.05V70H1077.18Z" fill="#FAFAFA"/>
<path d="M1136.32 70H1134.14L1129.45 64.2031V70H1127.57V58.5781H1129.45V64.1094L1134.05 58.5781H1136.1L1131.49 64.0938L1136.32 70ZM1147.98 64.2734C1147.98 65.1536 1147.86 65.9557 1147.64 66.6797C1147.42 67.3984 1147.09 68.0182 1146.65 68.5391C1146.21 69.0547 1145.65 69.4531 1144.98 69.7344C1144.32 70.0156 1143.54 70.1562 1142.64 70.1562C1141.73 70.1562 1140.94 70.0156 1140.27 69.7344C1139.6 69.4531 1139.04 69.0521 1138.6 68.5312C1138.16 68.0104 1137.84 67.388 1137.62 66.6641C1137.4 65.9401 1137.29 65.138 1137.29 64.2578C1137.29 63.0807 1137.48 62.0547 1137.87 61.1797C1138.26 60.2995 1138.85 59.6172 1139.64 59.1328C1140.44 58.6432 1141.44 58.3984 1142.66 58.3984C1143.84 58.3984 1144.83 58.6406 1145.62 59.125C1146.4 59.6094 1146.99 60.2917 1147.38 61.1719C1147.78 62.0469 1147.98 63.0807 1147.98 64.2734ZM1139.26 64.2734C1139.26 65.1536 1139.38 65.9167 1139.62 66.5625C1139.86 67.2031 1140.22 67.6979 1140.72 68.0469C1141.22 68.3906 1141.86 68.5625 1142.64 68.5625C1143.43 68.5625 1144.07 68.3906 1144.56 68.0469C1145.06 67.6979 1145.42 67.2031 1145.66 66.5625C1145.89 65.9167 1146.01 65.1536 1146.01 64.2734C1146.01 62.9349 1145.74 61.888 1145.2 61.1328C1144.67 60.3724 1143.82 59.9922 1142.66 59.9922C1141.88 59.9922 1141.23 60.1641 1140.73 60.5078C1140.23 60.8516 1139.86 61.3438 1139.62 61.9844C1139.38 62.6198 1139.26 63.3828 1139.26 64.2734ZM1159.44 70H1157.57V64.8438H1152.3V70H1150.43V58.5781H1152.3V63.25H1157.57V58.5781H1159.44V70ZM1166.42 70H1164.54V60.1719H1161.2V58.5781H1169.76V60.1719H1166.42V70ZM1178.59 70L1177.47 66.8281H1173.1L1171.98 70H1170.01L1174.26 58.5312H1176.34L1180.58 70H1178.59ZM1176.98 65.2188L1175.9 62.0938C1175.86 61.9583 1175.8 61.7682 1175.72 61.5234C1175.64 61.2734 1175.56 61.0208 1175.48 60.7656C1175.41 60.5052 1175.34 60.2865 1175.29 60.1094C1175.24 60.3229 1175.17 60.5625 1175.09 60.8281C1175.02 61.0885 1174.95 61.3333 1174.88 61.5625C1174.81 61.7917 1174.76 61.9688 1174.72 62.0938L1173.62 65.2188H1176.98ZM1190.84 70H1188.66L1183.96 64.2031V70H1182.09V58.5781H1183.96V64.1094L1188.57 58.5781H1190.62L1186.01 64.0938L1190.84 70ZM1196.31 70H1194.43V60.1719H1191.09V58.5781H1199.65V60.1719H1196.31V70ZM1201.4 70V58.5781H1203.27V63.1953H1204.58C1205.62 63.1953 1206.47 63.3411 1207.11 63.6328C1207.76 63.9193 1208.23 64.3151 1208.52 64.8203C1208.82 65.3255 1208.97 65.901 1208.97 66.5469C1208.97 67.6198 1208.62 68.4635 1207.92 69.0781C1207.23 69.6927 1206.13 70 1204.63 70H1201.4ZM1203.27 68.4375H1204.53C1205.36 68.4375 1205.99 68.2891 1206.41 67.9922C1206.84 67.6901 1207.05 67.2083 1207.05 66.5469C1207.05 66.0833 1206.95 65.724 1206.75 65.4688C1206.55 65.2135 1206.25 65.0339 1205.85 64.9297C1205.46 64.8255 1204.96 64.7734 1204.38 64.7734H1203.27V68.4375ZM1210.53 70V58.5781H1212.41V70H1210.53Z" fill="#FAFAFA"/>
<path d="M1563.5 64C1562.19 64 1561.08 63.5839 1560.15 62.7516C1559.22 61.9193 1558.75 60.9187 1558.75 59.75C1558.75 58.5812 1559.22 57.5807 1560.15 56.7484C1561.08 55.9161 1562.19 55.5 1563.5 55.5C1564.81 55.5 1565.92 55.9161 1566.85 56.7484C1567.78 57.5807 1568.25 58.5812 1568.25 59.75C1568.25 60.9187 1567.78 61.9193 1566.85 62.7516C1565.92 63.5839 1564.81 64 1563.5 64ZM1554 72.5V69.525C1554 68.9229 1554.17 68.3694 1554.52 67.8643C1554.87 67.3593 1555.33 66.9743 1555.9 66.7094C1557.13 66.1604 1558.37 65.7485 1559.64 65.4737C1560.91 65.1989 1562.19 65.0618 1563.5 65.0625C1564.81 65.0625 1566.09 65.1999 1567.36 65.4747C1568.63 65.7496 1569.87 66.1611 1571.1 66.7094C1571.67 66.975 1572.13 67.3603 1572.48 67.8654C1572.83 68.3704 1573 68.9236 1573 69.525V72.5H1554ZM1556.37 70.375H1570.62V69.525C1570.62 69.3302 1570.57 69.1531 1570.46 68.9938C1570.35 68.8344 1570.21 68.7104 1570.03 68.6219C1568.96 68.1438 1567.88 67.7853 1566.8 67.5466C1565.71 67.3079 1564.61 67.1882 1563.5 67.1875C1562.39 67.1875 1561.29 67.3072 1560.2 67.5466C1559.12 67.786 1558.04 68.1445 1556.97 68.6219C1556.79 68.7104 1556.65 68.8344 1556.54 68.9938C1556.43 69.1531 1556.37 69.3302 1556.37 69.525V70.375ZM1563.5 61.875C1564.15 61.875 1564.71 61.6667 1565.18 61.2502C1565.64 60.8337 1565.88 60.3337 1565.87 59.75C1565.87 59.1656 1565.64 58.6652 1565.18 58.2487C1564.71 57.8322 1564.15 57.6243 1563.5 57.625C1562.85 57.625 1562.29 57.8332 1561.82 58.2497C1561.36 58.6662 1561.12 59.1663 1561.12 59.75C1561.12 60.3344 1561.36 60.8348 1561.82 61.2513C1562.29 61.6678 1562.85 61.8757 1563.5 61.875Z" fill="#FAFAFA"/>
<path d="M1601.61 45.766C1601.63 45.7102 1601.66 45.6579 1601.69 45.612C1601.73 45.5661 1601.77 45.5276 1601.82 45.4987C1601.87 45.4698 1601.93 45.451 1601.98 45.4435C1602.04 45.436 1602.1 45.4398 1602.15 45.4547C1602.97 45.6676 1603.71 46.094 1604.31 46.6901C1604.91 47.2862 1605.33 48.0304 1605.55 48.8461C1605.56 48.9019 1605.56 48.9601 1605.56 49.0175C1605.55 49.0748 1605.53 49.13 1605.5 49.1801C1605.47 49.2301 1605.43 49.274 1605.39 49.3092C1605.34 49.3444 1605.29 49.3701 1605.23 49.3851C1605.2 49.3948 1605.16 49.3998 1605.12 49.3999C1605.02 49.3999 1604.93 49.3679 1604.85 49.3088C1604.78 49.2497 1604.72 49.1669 1604.7 49.0732C1604.52 48.4073 1604.17 47.7998 1603.69 47.3132C1603.2 46.8266 1602.59 46.4786 1601.93 46.3051C1601.87 46.2902 1601.82 46.2644 1601.77 46.2293C1601.73 46.1941 1601.69 46.1503 1601.66 46.1002C1601.63 46.0501 1601.61 45.9949 1601.6 45.9375C1601.6 45.8802 1601.6 45.8219 1601.61 45.766ZM1601.49 48.0651C1602.25 48.2675 1602.73 48.7548 1602.93 49.5132C1602.96 49.6069 1603.02 49.6897 1603.09 49.7488C1603.17 49.8079 1603.26 49.8399 1603.36 49.8399C1603.4 49.8398 1603.44 49.8348 1603.47 49.8251C1603.53 49.8101 1603.58 49.7844 1603.63 49.7492C1603.67 49.714 1603.71 49.6701 1603.74 49.6201C1603.77 49.57 1603.79 49.5148 1603.8 49.4575C1603.8 49.4001 1603.8 49.3419 1603.79 49.2861C1603.5 48.2323 1602.77 47.4964 1601.71 47.2148C1601.66 47.1998 1601.6 47.1961 1601.54 47.2037C1601.49 47.2112 1601.43 47.23 1601.38 47.259C1601.33 47.2879 1601.29 47.3264 1601.25 47.3723C1601.22 47.4182 1601.19 47.4705 1601.18 47.5263C1601.16 47.5822 1601.16 47.6404 1601.16 47.6977C1601.17 47.755 1601.19 47.8102 1601.22 47.8602C1601.25 47.9103 1601.29 47.9541 1601.33 47.9892C1601.38 48.0244 1601.43 48.0502 1601.49 48.0651ZM1605.99 53.3094C1605.9 54.0546 1605.53 54.7387 1604.96 55.2339C1604.4 55.729 1603.67 56.0013 1602.92 56C1598.55 56 1595 52.447 1595 48.0799C1595 47.3282 1595.27 46.6017 1595.77 46.0362C1596.26 45.4706 1596.95 45.1046 1597.69 45.0065C1597.88 44.9835 1598.07 45.022 1598.23 45.1164C1598.4 45.2108 1598.53 45.3559 1598.6 45.5301L1599.77 48.1234V48.13C1599.82 48.2633 1599.85 48.4089 1599.84 48.5537C1599.82 48.6986 1599.78 48.8381 1599.7 48.9599C1599.69 48.9748 1599.68 48.9885 1599.67 49.0023L1598.52 50.3597C1598.93 51.1968 1599.81 52.0647 1600.66 52.4778L1601.99 51.3387C1602.01 51.3276 1602.02 51.3174 1602.04 51.3079C1602.16 51.2267 1602.3 51.1772 1602.44 51.1637C1602.59 51.1503 1602.74 51.1734 1602.87 51.2309L1602.88 51.2342L1605.47 52.3953C1605.64 52.4705 1605.79 52.6002 1605.88 52.765C1605.98 52.9297 1606.02 53.1207 1605.99 53.3094ZM1605.12 53.1994H1605.11L1602.53 52.0416L1601.19 53.1807C1601.18 53.1917 1601.16 53.202 1601.15 53.2115C1601.02 53.296 1600.88 53.3461 1600.72 53.3571C1600.57 53.3681 1600.42 53.3395 1600.28 53.2742C1599.25 52.7764 1598.23 51.7573 1597.73 50.7381C1597.66 50.6016 1597.63 50.4504 1597.64 50.2991C1597.65 50.1478 1597.7 50.0016 1597.78 49.8746C1597.79 49.8597 1597.8 49.8455 1597.81 49.8322L1598.96 48.4732L1597.81 45.8881C1597.8 45.886 1597.8 45.8837 1597.81 45.8815C1597.27 45.9511 1596.78 46.2127 1596.43 46.6174C1596.07 47.0221 1595.88 47.542 1595.88 48.0799C1595.88 49.9464 1596.62 51.7359 1597.94 53.0557C1599.26 54.3756 1601.05 55.1179 1602.92 55.12C1603.46 55.1218 1603.98 54.9278 1604.38 54.5742C1604.79 54.2207 1605.05 53.7323 1605.12 53.1994Z" fill="#00C2FF"/>
<path d="M1615.94 50.4561H1618.67V51.6729H1615.94V54.4346H1614.72V51.6729H1611.99V50.4561H1614.72V47.667H1615.94V50.4561ZM1621.12 56L1625.04 47.4141H1619.86V46.0059H1626.77V47.1064L1622.85 56H1621.12ZM1631.56 52.165C1631.56 51.3994 1631.63 50.652 1631.78 49.9229C1631.93 49.1937 1632.16 48.4987 1632.46 47.8379C1632.77 47.1771 1633.15 46.5664 1633.62 46.0059H1635.02C1634.37 46.8763 1633.87 47.8402 1633.54 48.8975C1633.21 49.9548 1633.05 51.0394 1633.05 52.1514C1633.05 52.876 1633.12 53.5938 1633.27 54.3047C1633.41 55.0156 1633.63 55.6992 1633.92 56.3555C1634.22 57.0163 1634.58 57.6361 1635 58.2148H1633.62C1633.15 57.668 1632.77 57.071 1632.46 56.4238C1632.16 55.7767 1631.93 55.0931 1631.78 54.373C1631.63 53.653 1631.56 52.917 1631.56 52.165ZM1639.44 45.8691C1640.02 45.8691 1640.54 45.9603 1641.01 46.1426C1641.47 46.3203 1641.84 46.5869 1642.11 46.9424C1642.39 47.2979 1642.52 47.7376 1642.52 48.2617C1642.52 48.6673 1642.44 49.0205 1642.27 49.3213C1642.11 49.6221 1641.88 49.8864 1641.6 50.1143C1641.32 50.3376 1641 50.5358 1640.65 50.709C1641.04 50.9004 1641.4 51.1214 1641.73 51.3721C1642.06 51.6182 1642.33 51.9076 1642.53 52.2402C1642.74 52.5729 1642.84 52.9626 1642.84 53.4092C1642.84 53.9697 1642.69 54.4551 1642.41 54.8652C1642.12 55.2708 1641.73 55.5853 1641.22 55.8086C1640.72 56.0273 1640.13 56.1367 1639.45 56.1367C1638.73 56.1367 1638.11 56.0296 1637.6 55.8154C1637.09 55.6012 1636.7 55.2959 1636.44 54.8994C1636.18 54.4984 1636.04 54.0199 1636.04 53.4639C1636.04 53.0036 1636.13 52.6048 1636.32 52.2676C1636.5 51.9303 1636.74 51.6387 1637.05 51.3926C1637.36 51.1465 1637.7 50.9391 1638.07 50.7705C1637.75 50.5837 1637.46 50.374 1637.21 50.1416C1636.95 49.9046 1636.74 49.6335 1636.58 49.3281C1636.43 49.0182 1636.36 48.6605 1636.36 48.2549C1636.36 47.7354 1636.5 47.3001 1636.77 46.9492C1637.05 46.5938 1637.42 46.3249 1637.89 46.1426C1638.36 45.9603 1638.88 45.8691 1639.44 45.8691ZM1637.57 53.4023C1637.57 53.8398 1637.73 54.1999 1638.04 54.4824C1638.35 54.765 1638.81 54.9062 1639.43 54.9062C1640.04 54.9062 1640.5 54.7673 1640.82 54.4893C1641.14 54.2113 1641.3 53.8444 1641.3 53.3887C1641.3 53.097 1641.22 52.8395 1641.05 52.6162C1640.89 52.3929 1640.68 52.1947 1640.4 52.0215C1640.14 51.8438 1639.84 51.6797 1639.51 51.5293L1639.29 51.4404C1638.93 51.5908 1638.63 51.7617 1638.37 51.9531C1638.12 52.14 1637.92 52.3519 1637.78 52.5889C1637.64 52.8258 1637.57 53.097 1637.57 53.4023ZM1639.43 47.1064C1638.98 47.1064 1638.62 47.2158 1638.33 47.4346C1638.05 47.6488 1637.91 47.9587 1637.91 48.3643C1637.91 48.6514 1637.98 48.8975 1638.11 49.1025C1638.26 49.3076 1638.44 49.4854 1638.68 49.6357C1638.92 49.7816 1639.18 49.9183 1639.47 50.0459C1639.75 49.9229 1640 49.7884 1640.22 49.6426C1640.45 49.4922 1640.63 49.3145 1640.76 49.1094C1640.9 48.8997 1640.96 48.6491 1640.96 48.3574C1640.96 47.9564 1640.82 47.6488 1640.53 47.4346C1640.25 47.2158 1639.88 47.1064 1639.43 47.1064ZM1650.85 50.9961C1650.85 51.8027 1650.79 52.5251 1650.66 53.1631C1650.54 53.7965 1650.34 54.3343 1650.07 54.7764C1649.8 55.2184 1649.45 55.5557 1649.02 55.7881C1648.58 56.0205 1648.06 56.1367 1647.45 56.1367C1646.68 56.1367 1646.04 55.9339 1645.54 55.5283C1645.04 55.1182 1644.67 54.5303 1644.42 53.7646C1644.18 52.9945 1644.06 52.0716 1644.06 50.9961C1644.06 49.9206 1644.17 49 1644.39 48.2344C1644.61 47.4642 1644.97 46.874 1645.47 46.4639C1645.97 46.0537 1646.62 45.8486 1647.45 45.8486C1648.22 45.8486 1648.86 46.0537 1649.36 46.4639C1649.87 46.8695 1650.24 47.4574 1650.48 48.2275C1650.73 48.9932 1650.85 49.916 1650.85 50.9961ZM1645.68 50.9961C1645.68 51.8392 1645.74 52.5433 1645.85 53.1084C1645.96 53.6735 1646.15 54.0973 1646.41 54.3799C1646.67 54.6579 1647.01 54.7969 1647.45 54.7969C1647.88 54.7969 1648.22 54.6579 1648.48 54.3799C1648.74 54.1019 1648.93 53.6803 1649.04 53.1152C1649.16 52.5501 1649.22 51.8438 1649.22 50.9961C1649.22 50.1576 1649.17 49.4557 1649.05 48.8906C1648.94 48.3255 1648.75 47.9017 1648.49 47.6191C1648.23 47.332 1647.88 47.1885 1647.45 47.1885C1647.01 47.1885 1646.66 47.332 1646.4 47.6191C1646.14 47.9017 1645.96 48.3255 1645.85 48.8906C1645.74 49.4557 1645.68 50.1576 1645.68 50.9961ZM1658.86 50.9961C1658.86 51.8027 1658.8 52.5251 1658.67 53.1631C1658.55 53.7965 1658.35 54.3343 1658.08 54.7764C1657.81 55.2184 1657.46 55.5557 1657.03 55.7881C1656.6 56.0205 1656.07 56.1367 1655.46 56.1367C1654.69 56.1367 1654.05 55.9339 1653.55 55.5283C1653.05 55.1182 1652.68 54.5303 1652.44 53.7646C1652.19 52.9945 1652.07 52.0716 1652.07 50.9961C1652.07 49.9206 1652.18 49 1652.4 48.2344C1652.62 47.4642 1652.98 46.874 1653.48 46.4639C1653.98 46.0537 1654.64 45.8486 1655.46 45.8486C1656.23 45.8486 1656.87 46.0537 1657.37 46.4639C1657.88 46.8695 1658.25 47.4574 1658.49 48.2275C1658.74 48.9932 1658.86 49.916 1658.86 50.9961ZM1653.69 50.9961C1653.69 51.8392 1653.75 52.5433 1653.86 53.1084C1653.97 53.6735 1654.16 54.0973 1654.42 54.3799C1654.68 54.6579 1655.02 54.7969 1655.46 54.7969C1655.89 54.7969 1656.24 54.6579 1656.5 54.3799C1656.76 54.1019 1656.94 53.6803 1657.06 53.1152C1657.18 52.5501 1657.23 51.8438 1657.23 50.9961C1657.23 50.1576 1657.18 49.4557 1657.06 48.8906C1656.95 48.3255 1656.76 47.9017 1656.5 47.6191C1656.24 47.332 1655.89 47.1885 1655.46 47.1885C1655.02 47.1885 1654.67 47.332 1654.41 47.6191C1654.16 47.9017 1653.97 48.3255 1653.86 48.8906C1653.75 49.4557 1653.69 50.1576 1653.69 50.9961ZM1663.35 52.1582C1663.35 52.9147 1663.28 53.653 1663.13 54.373C1662.99 55.0931 1662.76 55.7767 1662.46 56.4238C1662.16 57.071 1661.77 57.668 1661.29 58.2148H1659.91C1660.34 57.6361 1660.7 57.0163 1660.99 56.3555C1661.29 55.6947 1661.5 55.0088 1661.65 54.2979C1661.8 53.5869 1661.87 52.8691 1661.87 52.1445C1661.87 51.4062 1661.79 50.6771 1661.64 49.957C1661.5 49.237 1661.28 48.5443 1660.99 47.8789C1660.7 47.209 1660.33 46.5846 1659.9 46.0059H1661.29C1661.77 46.5664 1662.16 47.1771 1662.46 47.8379C1662.76 48.4987 1662.99 49.1937 1663.13 49.9229C1663.28 50.6475 1663.35 51.3926 1663.35 52.1582ZM1671.58 49.752C1672.23 49.752 1672.79 49.8682 1673.28 50.1006C1673.77 50.3285 1674.15 50.6657 1674.43 51.1123C1674.7 51.5544 1674.84 52.0967 1674.84 52.7393C1674.84 53.4411 1674.69 54.0472 1674.39 54.5576C1674.1 55.0635 1673.66 55.4531 1673.09 55.7266C1672.51 56 1671.81 56.1367 1670.99 56.1367C1670.46 56.1367 1669.97 56.0911 1669.52 56C1669.07 55.9089 1668.68 55.7721 1668.35 55.5898V54.1406C1668.69 54.332 1669.1 54.4893 1669.58 54.6123C1670.06 54.7308 1670.52 54.79 1670.95 54.79C1671.42 54.79 1671.82 54.7217 1672.15 54.585C1672.48 54.4482 1672.74 54.2386 1672.92 53.9561C1673.1 53.6735 1673.19 53.3158 1673.19 52.8828C1673.19 52.3086 1673 51.8665 1672.64 51.5566C1672.27 51.2422 1671.7 51.085 1670.92 51.085C1670.65 51.085 1670.35 51.11 1670.04 51.1602C1669.74 51.2057 1669.48 51.2559 1669.28 51.3105L1668.58 50.8936L1668.95 46.0059H1674.15V47.4209H1670.37L1670.15 49.9092C1670.31 49.8727 1670.51 49.8385 1670.74 49.8066C1670.96 49.7702 1671.25 49.752 1671.58 49.752ZM1679.59 49.752C1680.24 49.752 1680.8 49.8682 1681.29 50.1006C1681.78 50.3285 1682.17 50.6657 1682.44 51.1123C1682.71 51.5544 1682.85 52.0967 1682.85 52.7393C1682.85 53.4411 1682.7 54.0472 1682.4 54.5576C1682.11 55.0635 1681.67 55.4531 1681.1 55.7266C1680.52 56 1679.82 56.1367 1679 56.1367C1678.48 56.1367 1677.99 56.0911 1677.53 56C1677.08 55.9089 1676.69 55.7721 1676.36 55.5898V54.1406C1676.7 54.332 1677.11 54.4893 1677.59 54.6123C1678.07 54.7308 1678.53 54.79 1678.97 54.79C1679.43 54.79 1679.83 54.7217 1680.16 54.585C1680.49 54.4482 1680.75 54.2386 1680.93 53.9561C1681.11 53.6735 1681.2 53.3158 1681.2 52.8828C1681.2 52.3086 1681.02 51.8665 1680.65 51.5566C1680.28 51.2422 1679.71 51.085 1678.93 51.085C1678.66 51.085 1678.37 51.11 1678.06 51.1602C1677.75 51.2057 1677.5 51.2559 1677.29 51.3105L1676.59 50.8936L1676.96 46.0059H1682.16V47.4209H1678.38L1678.16 49.9092C1678.32 49.8727 1678.52 49.8385 1678.75 49.8066C1678.97 49.7702 1679.26 49.752 1679.59 49.752ZM1687.61 49.752C1688.25 49.752 1688.81 49.8682 1689.3 50.1006C1689.79 50.3285 1690.18 50.6657 1690.45 51.1123C1690.72 51.5544 1690.86 52.0967 1690.86 52.7393C1690.86 53.4411 1690.71 54.0472 1690.42 54.5576C1690.12 55.0635 1689.68 55.4531 1689.11 55.7266C1688.54 56 1687.84 56.1367 1687.01 56.1367C1686.49 56.1367 1686 56.0911 1685.54 56C1685.09 55.9089 1684.7 55.7721 1684.37 55.5898V54.1406C1684.71 54.332 1685.12 54.4893 1685.6 54.6123C1686.08 54.7308 1686.54 54.79 1686.98 54.79C1687.44 54.79 1687.84 54.7217 1688.17 54.585C1688.51 54.4482 1688.76 54.2386 1688.94 53.9561C1689.12 53.6735 1689.21 53.3158 1689.21 52.8828C1689.21 52.3086 1689.03 51.8665 1688.66 51.5566C1688.29 51.2422 1687.72 51.085 1686.94 51.085C1686.67 51.085 1686.38 51.11 1686.07 51.1602C1685.76 51.2057 1685.51 51.2559 1685.3 51.3105L1684.6 50.8936L1684.97 46.0059H1690.17V47.4209H1686.39L1686.17 49.9092C1686.33 49.8727 1686.53 49.8385 1686.76 49.8066C1686.99 49.7702 1687.27 49.752 1687.61 49.752ZM1692.08 52.9238V51.5635H1695.61V52.9238H1692.08ZM1703.12 48.2891C1703.12 48.7402 1703.03 49.1322 1702.84 49.4648C1702.66 49.7975 1702.41 50.071 1702.09 50.2852C1701.78 50.4948 1701.41 50.6452 1701 50.7363V50.7842C1701.8 50.8844 1702.4 51.1351 1702.8 51.5361C1703.21 51.9372 1703.42 52.4681 1703.42 53.1289C1703.42 53.7077 1703.28 54.2249 1703 54.6807C1702.72 55.1318 1702.3 55.4873 1701.72 55.7471C1701.15 56.0068 1700.41 56.1367 1699.51 56.1367C1698.97 56.1367 1698.46 56.0934 1698 56.0068C1697.54 55.9202 1697.1 55.7812 1696.68 55.5898V54.1611C1697.11 54.3708 1697.56 54.5326 1698.04 54.6465C1698.52 54.7604 1698.97 54.8174 1699.4 54.8174C1700.23 54.8174 1700.83 54.6624 1701.18 54.3525C1701.54 54.0381 1701.72 53.6051 1701.72 53.0537C1701.72 52.6982 1701.62 52.4066 1701.44 52.1787C1701.25 51.9508 1700.97 51.7799 1700.58 51.666C1700.2 51.5521 1699.7 51.4951 1699.1 51.4951H1698.22V50.2031H1699.1C1699.68 50.2031 1700.15 50.1348 1700.5 49.998C1700.85 49.8568 1701.1 49.6631 1701.26 49.417C1701.42 49.1709 1701.5 48.8838 1701.5 48.5557C1701.5 48.1273 1701.36 47.7946 1701.08 47.5576C1700.8 47.3161 1700.39 47.1953 1699.84 47.1953C1699.51 47.1953 1699.2 47.234 1698.92 47.3115C1698.65 47.389 1698.39 47.487 1698.16 47.6055C1697.93 47.724 1697.71 47.8516 1697.5 47.9883L1696.73 46.874C1697.1 46.5915 1697.56 46.3522 1698.08 46.1562C1698.6 45.9603 1699.21 45.8623 1699.91 45.8623C1700.94 45.8623 1701.73 46.0833 1702.28 46.5254C1702.84 46.9629 1703.12 47.5508 1703.12 48.2891ZM1708.14 49.752C1708.78 49.752 1709.35 49.8682 1709.84 50.1006C1710.33 50.3285 1710.71 50.6657 1710.99 51.1123C1711.26 51.5544 1711.4 52.0967 1711.4 52.7393C1711.4 53.4411 1711.25 54.0472 1710.95 54.5576C1710.65 55.0635 1710.22 55.4531 1709.65 55.7266C1709.07 56 1708.37 56.1367 1707.55 56.1367C1707.02 56.1367 1706.53 56.0911 1706.08 56C1705.63 55.9089 1705.24 55.7721 1704.91 55.5898V54.1406C1705.25 54.332 1705.66 54.4893 1706.14 54.6123C1706.62 54.7308 1707.08 54.79 1707.51 54.79C1707.98 54.79 1708.38 54.7217 1708.71 54.585C1709.04 54.4482 1709.3 54.2386 1709.47 53.9561C1709.66 53.6735 1709.75 53.3158 1709.75 52.8828C1709.75 52.3086 1709.56 51.8665 1709.19 51.5566C1708.83 51.2422 1708.26 51.085 1707.48 51.085C1707.21 51.085 1706.91 51.11 1706.6 51.1602C1706.3 51.2057 1706.04 51.2559 1705.84 51.3105L1705.13 50.8936L1705.51 46.0059H1710.71V47.4209H1706.92L1706.71 49.9092C1706.87 49.8727 1707.07 49.8385 1707.29 49.8066C1707.52 49.7702 1707.8 49.752 1708.14 49.752ZM1712.62 52.9238V51.5635H1716.15V52.9238H1712.62ZM1723.65 48.2891C1723.65 48.7402 1723.56 49.1322 1723.38 49.4648C1723.2 49.7975 1722.95 50.071 1722.63 50.2852C1722.31 50.4948 1721.95 50.6452 1721.53 50.7363V50.7842C1722.33 50.8844 1722.93 51.1351 1723.34 51.5361C1723.75 51.9372 1723.95 52.4681 1723.95 53.1289C1723.95 53.7077 1723.81 54.2249 1723.54 54.6807C1723.26 55.1318 1722.83 55.4873 1722.26 55.7471C1721.68 56.0068 1720.95 56.1367 1720.04 56.1367C1719.5 56.1367 1719 56.0934 1718.53 56.0068C1718.07 55.9202 1717.63 55.7812 1717.22 55.5898V54.1611C1717.64 54.3708 1718.09 54.5326 1718.57 54.6465C1719.05 54.7604 1719.51 54.8174 1719.93 54.8174C1720.77 54.8174 1721.36 54.6624 1721.72 54.3525C1722.07 54.0381 1722.25 53.6051 1722.25 53.0537C1722.25 52.6982 1722.16 52.4066 1721.97 52.1787C1721.79 51.9508 1721.5 51.7799 1721.12 51.666C1720.73 51.5521 1720.24 51.4951 1719.63 51.4951H1718.75V50.2031H1719.64C1720.22 50.2031 1720.68 50.1348 1721.03 49.998C1721.39 49.8568 1721.64 49.6631 1721.79 49.417C1721.95 49.1709 1722.03 48.8838 1722.03 48.5557C1722.03 48.1273 1721.89 47.7946 1721.62 47.5576C1721.34 47.3161 1720.92 47.1953 1720.38 47.1953C1720.04 47.1953 1719.73 47.234 1719.46 47.3115C1719.18 47.389 1718.93 47.487 1718.7 47.6055C1718.46 47.724 1718.24 47.8516 1718.03 47.9883L1717.26 46.874C1717.64 46.5915 1718.09 46.3522 1718.61 46.1562C1719.14 45.9603 1719.75 45.8623 1720.45 45.8623C1721.47 45.8623 1722.26 46.0833 1722.82 46.5254C1723.37 46.9629 1723.65 47.5508 1723.65 48.2891ZM1728.68 49.752C1729.32 49.752 1729.88 49.8682 1730.37 50.1006C1730.86 50.3285 1731.25 50.6657 1731.52 51.1123C1731.79 51.5544 1731.93 52.0967 1731.93 52.7393C1731.93 53.4411 1731.78 54.0472 1731.49 54.5576C1731.19 55.0635 1730.75 55.4531 1730.18 55.7266C1729.61 56 1728.91 56.1367 1728.08 56.1367C1727.56 56.1367 1727.07 56.0911 1726.61 56C1726.16 55.9089 1725.77 55.7721 1725.44 55.5898V54.1406C1725.79 54.332 1726.2 54.4893 1726.67 54.6123C1727.15 54.7308 1727.61 54.79 1728.05 54.79C1728.51 54.79 1728.91 54.7217 1729.24 54.585C1729.58 54.4482 1729.83 54.2386 1730.01 53.9561C1730.19 53.6735 1730.28 53.3158 1730.28 52.8828C1730.28 52.3086 1730.1 51.8665 1729.73 51.5566C1729.36 51.2422 1728.79 51.085 1728.01 51.085C1727.74 51.085 1727.45 51.11 1727.14 51.1602C1726.83 51.2057 1726.58 51.2559 1726.37 51.3105L1725.67 50.8936L1726.04 46.0059H1731.24V47.4209H1727.46L1727.24 49.9092C1727.41 49.8727 1727.6 49.8385 1727.83 49.8066C1728.06 49.7702 1728.34 49.752 1728.68 49.752Z" fill="white"/>
<path d="M1643.87 74L1645.38 66.8613H1650.62L1649.1 74H1647.61L1648.86 68.1211H1646.61L1645.36 74H1643.87ZM1650.83 74L1652.34 66.8613H1653.83L1653.24 69.6592H1655.54L1656.13 66.8613H1657.62L1656.11 74H1654.62L1655.27 70.9189H1652.97L1652.32 74H1650.83ZM1657.77 71.9297L1658.03 70.709H1660.59L1660.33 71.9297H1657.77ZM1661.05 74L1662.56 66.8613H1667.79L1666.28 74H1664.79L1666.04 68.1211H1663.79L1662.54 74H1661.05ZM1669.04 74L1670.29 68.1211H1668.57L1668.83 66.8613H1673.77L1673.5 68.1211H1671.77L1670.53 74H1669.04ZM1674.83 70.0986C1674.55 70.0986 1674.35 70.0286 1674.24 69.8887C1674.13 69.7454 1674.07 69.5859 1674.07 69.4102C1674.07 69.2507 1674.1 69.0977 1674.17 68.9512C1674.23 68.8014 1674.34 68.6794 1674.48 68.585C1674.63 68.4873 1674.83 68.4385 1675.07 68.4385C1675.29 68.4385 1675.47 68.502 1675.6 68.6289C1675.73 68.7526 1675.8 68.9268 1675.8 69.1514C1675.8 69.4248 1675.71 69.651 1675.53 69.8301C1675.36 70.0091 1675.12 70.0986 1674.83 70.0986ZM1673.94 74.1318C1673.66 74.1318 1673.47 74.0602 1673.35 73.917C1673.24 73.7738 1673.18 73.6143 1673.18 73.4385C1673.18 73.1976 1673.26 72.9762 1673.41 72.7744C1673.56 72.5726 1673.81 72.4717 1674.18 72.4717C1674.4 72.4717 1674.58 72.5335 1674.71 72.6572C1674.84 72.7809 1674.91 72.9551 1674.91 73.1797C1674.91 73.4564 1674.82 73.6842 1674.65 73.8633C1674.47 74.0423 1674.23 74.1318 1673.94 74.1318ZM1648.69 85.0977C1648.11 85.0977 1647.63 84.9837 1647.24 84.7559C1646.86 84.5247 1646.56 84.2008 1646.36 83.7842C1646.17 83.3643 1646.07 82.8695 1646.07 82.2998C1646.07 81.8799 1646.12 81.4551 1646.21 81.0254C1646.31 80.5957 1646.46 80.1855 1646.65 79.7949C1646.85 79.401 1647.1 79.0511 1647.4 78.7451C1647.7 78.4391 1648.06 78.1966 1648.47 78.0176C1648.89 77.8385 1649.36 77.749 1649.89 77.749C1650.34 77.749 1650.73 77.7913 1651.04 77.876C1651.36 77.9606 1651.67 78.0892 1651.99 78.2617L1651.41 79.4824C1651.18 79.349 1650.94 79.2367 1650.7 79.1455C1650.46 79.0544 1650.19 79.0088 1649.89 79.0088C1649.57 79.0088 1649.28 79.0739 1649.03 79.2041C1648.78 79.3343 1648.56 79.5117 1648.38 79.7363C1648.2 79.9577 1648.05 80.2083 1647.94 80.4883C1647.82 80.765 1647.73 81.0531 1647.67 81.3525C1647.62 81.652 1647.59 81.9417 1647.59 82.2217C1647.59 82.762 1647.7 83.1657 1647.93 83.4326C1648.15 83.6963 1648.51 83.8281 1648.99 83.8281C1649.26 83.8281 1649.53 83.7939 1649.81 83.7256C1650.09 83.654 1650.36 83.5628 1650.64 83.4521V84.7217C1650.44 84.7998 1650.18 84.8828 1649.84 84.9707C1649.51 85.0553 1649.12 85.0977 1648.69 85.0977ZM1651.85 85L1653.36 77.8613H1657.38L1657.11 79.1016H1654.57L1654.25 80.6006H1654.58C1655.14 80.6006 1655.6 80.6852 1655.95 80.8545C1656.3 81.0205 1656.56 81.2533 1656.73 81.5527C1656.89 81.8522 1656.97 82.2005 1656.97 82.5977C1656.97 82.998 1656.9 83.348 1656.76 83.6475C1656.63 83.9469 1656.43 84.1976 1656.17 84.3994C1655.91 84.598 1655.59 84.7477 1655.22 84.8486C1654.85 84.9495 1654.44 85 1653.97 85H1651.85ZM1653.59 83.7598H1654.07C1654.42 83.7598 1654.7 83.7093 1654.9 83.6084C1655.1 83.5075 1655.25 83.374 1655.33 83.208C1655.42 83.042 1655.47 82.863 1655.47 82.6709C1655.47 82.3942 1655.39 82.1875 1655.23 82.0508C1655.08 81.9108 1654.84 81.8408 1654.52 81.8408H1654L1653.59 83.7598ZM1657.71 82.9297L1657.97 81.709H1660.53L1660.27 82.9297H1657.71ZM1660.99 85L1662.5 77.8613H1664.58C1665.04 77.8613 1665.43 77.915 1665.77 78.0225C1666.11 78.1266 1666.37 78.2959 1666.56 78.5303C1666.75 78.7614 1666.84 79.0674 1666.84 79.4482C1666.84 79.7705 1666.78 80.057 1666.66 80.3076C1666.54 80.555 1666.36 80.7617 1666.13 80.9277C1665.9 81.0905 1665.62 81.2077 1665.29 81.2793V81.3184C1665.61 81.403 1665.87 81.5609 1666.06 81.792C1666.26 82.0199 1666.35 82.3128 1666.35 82.6709C1666.35 83.2113 1666.23 83.654 1665.98 83.999C1665.74 84.3408 1665.4 84.5931 1664.97 84.7559C1664.55 84.9186 1664.07 85 1663.54 85H1660.99ZM1662.75 83.75H1663.62C1663.87 83.75 1664.08 83.7093 1664.26 83.6279C1664.45 83.5465 1664.59 83.4261 1664.69 83.2666C1664.79 83.1071 1664.85 82.9118 1664.85 82.6807C1664.85 82.43 1664.77 82.2363 1664.62 82.0996C1664.47 81.9596 1664.25 81.8896 1663.95 81.8896H1663.15L1662.75 83.75ZM1663.4 80.6885H1664.12C1664.36 80.6885 1664.57 80.6576 1664.74 80.5957C1664.92 80.5306 1665.06 80.4313 1665.16 80.2979C1665.26 80.1611 1665.3 79.9854 1665.3 79.7705C1665.3 79.5492 1665.24 79.3831 1665.1 79.2725C1664.96 79.1585 1664.75 79.1016 1664.47 79.1016H1663.73L1663.4 80.6885ZM1670.15 85.0977C1669.58 85.0977 1669.1 84.9837 1668.71 84.7559C1668.32 84.5247 1668.03 84.2008 1667.83 83.7842C1667.63 83.3643 1667.54 82.8695 1667.54 82.2998C1667.54 81.8799 1667.58 81.4551 1667.68 81.0254C1667.78 80.5957 1667.92 80.1855 1668.12 79.7949C1668.31 79.401 1668.56 79.0511 1668.86 78.7451C1669.17 78.4391 1669.53 78.1966 1669.94 78.0176C1670.35 77.8385 1670.82 77.749 1671.35 77.749C1671.81 77.749 1672.19 77.7913 1672.51 77.876C1672.82 77.9606 1673.14 78.0892 1673.45 78.2617L1672.88 79.4824C1672.65 79.349 1672.41 79.2367 1672.17 79.1455C1671.92 79.0544 1671.65 79.0088 1671.35 79.0088C1671.03 79.0088 1670.75 79.0739 1670.5 79.2041C1670.24 79.3343 1670.03 79.5117 1669.85 79.7363C1669.67 79.9577 1669.52 80.2083 1669.4 80.4883C1669.28 80.765 1669.2 81.0531 1669.14 81.3525C1669.08 81.652 1669.05 81.9417 1669.05 82.2217C1669.05 82.762 1669.17 83.1657 1669.39 83.4326C1669.62 83.6963 1669.97 83.8281 1670.46 83.8281C1670.73 83.8281 1671 83.7939 1671.28 83.7256C1671.55 83.654 1671.83 83.5628 1672.11 83.4521V84.7217C1671.91 84.7998 1671.64 84.8828 1671.31 84.9707C1670.97 85.0553 1670.59 85.0977 1670.15 85.0977ZM1674.83 81.0986C1674.55 81.0986 1674.35 81.0286 1674.24 80.8887C1674.13 80.7454 1674.07 80.5859 1674.07 80.4102C1674.07 80.2507 1674.1 80.0977 1674.17 79.9512C1674.23 79.8014 1674.34 79.6794 1674.48 79.585C1674.63 79.4873 1674.83 79.4385 1675.07 79.4385C1675.29 79.4385 1675.47 79.502 1675.6 79.6289C1675.73 79.7526 1675.8 79.9268 1675.8 80.1514C1675.8 80.4248 1675.71 80.651 1675.53 80.8301C1675.36 81.0091 1675.12 81.0986 1674.83 81.0986ZM1673.94 85.1318C1673.66 85.1318 1673.47 85.0602 1673.35 84.917C1673.24 84.7738 1673.18 84.6143 1673.18 84.4385C1673.18 84.1976 1673.26 83.9762 1673.41 83.7744C1673.56 83.5726 1673.81 83.4717 1674.18 83.4717C1674.4 83.4717 1674.58 83.5335 1674.71 83.6572C1674.84 83.7809 1674.91 83.9551 1674.91 84.1797C1674.91 84.4564 1674.82 84.6842 1674.65 84.8633C1674.47 85.0423 1674.23 85.1318 1673.94 85.1318Z" fill="#00C2FF"/>
<path d="M1683.79 70.4258C1683.79 71.002 1683.75 71.5179 1683.65 71.9736C1683.57 72.4261 1683.43 72.8102 1683.23 73.126C1683.04 73.4417 1682.79 73.6826 1682.48 73.8486C1682.17 74.0146 1681.8 74.0977 1681.36 74.0977C1680.81 74.0977 1680.36 73.9528 1680 73.6631C1679.64 73.3701 1679.37 72.9502 1679.2 72.4033C1679.03 71.8532 1678.94 71.194 1678.94 70.4258C1678.94 69.6576 1679.02 69 1679.18 68.4531C1679.34 67.903 1679.59 67.4814 1679.95 67.1885C1680.3 66.8955 1680.77 66.749 1681.36 66.749C1681.91 66.749 1682.37 66.8955 1682.73 67.1885C1683.09 67.4782 1683.35 67.8981 1683.53 68.4482C1683.7 68.9951 1683.79 69.6543 1683.79 70.4258ZM1680.1 70.4258C1680.1 71.028 1680.14 71.5309 1680.22 71.9346C1680.3 72.3382 1680.43 72.641 1680.62 72.8428C1680.8 73.0413 1681.05 73.1406 1681.36 73.1406C1681.67 73.1406 1681.92 73.0413 1682.1 72.8428C1682.29 72.6442 1682.42 72.3431 1682.5 71.9395C1682.59 71.5358 1682.63 71.0312 1682.63 70.4258C1682.63 69.8268 1682.59 69.3255 1682.51 68.9219C1682.43 68.5182 1682.29 68.2155 1682.11 68.0137C1681.92 67.8086 1681.67 67.7061 1681.36 67.7061C1681.05 67.7061 1680.8 67.8086 1680.61 68.0137C1680.43 68.2155 1680.3 68.5182 1680.22 68.9219C1680.14 69.3255 1680.1 69.8268 1680.1 70.4258ZM1685.5 74L1688.3 67.8672H1684.59V66.8613H1689.53V67.6475L1686.73 74H1685.5ZM1690.61 73.3945C1690.61 73.1276 1690.68 72.9404 1690.81 72.833C1690.95 72.7223 1691.12 72.667 1691.32 72.667C1691.52 72.667 1691.69 72.7223 1691.83 72.833C1691.97 72.9404 1692.04 73.1276 1692.04 73.3945C1692.04 73.6549 1691.97 73.8438 1691.83 73.9609C1691.69 74.0749 1691.52 74.1318 1691.32 74.1318C1691.12 74.1318 1690.95 74.0749 1690.81 73.9609C1690.68 73.8438 1690.61 73.6549 1690.61 73.3945ZM1690.61 69.2148C1690.61 68.9447 1690.68 68.7542 1690.81 68.6436C1690.95 68.5329 1691.12 68.4775 1691.32 68.4775C1691.52 68.4775 1691.69 68.5329 1691.83 68.6436C1691.97 68.7542 1692.04 68.9447 1692.04 69.2148C1692.04 69.472 1691.97 69.6592 1691.83 69.7764C1691.69 69.8903 1691.52 69.9473 1691.32 69.9473C1691.12 69.9473 1690.95 69.8903 1690.81 69.7764C1690.68 69.6592 1690.61 69.472 1690.61 69.2148ZM1697.98 70.4258C1697.98 71.002 1697.93 71.5179 1697.84 71.9736C1697.76 72.4261 1697.62 72.8102 1697.42 73.126C1697.23 73.4417 1696.98 73.6826 1696.67 73.8486C1696.36 74.0146 1695.99 74.0977 1695.55 74.0977C1695 74.0977 1694.54 73.9528 1694.19 73.6631C1693.83 73.3701 1693.56 72.9502 1693.39 72.4033C1693.22 71.8532 1693.13 71.194 1693.13 70.4258C1693.13 69.6576 1693.21 69 1693.37 68.4531C1693.53 67.903 1693.78 67.4814 1694.14 67.1885C1694.49 66.8955 1694.96 66.749 1695.55 66.749C1696.1 66.749 1696.56 66.8955 1696.92 67.1885C1697.28 67.4782 1697.54 67.8981 1697.72 68.4482C1697.89 68.9951 1697.98 69.6543 1697.98 70.4258ZM1694.29 70.4258C1694.29 71.028 1694.33 71.5309 1694.41 71.9346C1694.49 72.3382 1694.62 72.641 1694.81 72.8428C1694.99 73.0413 1695.24 73.1406 1695.55 73.1406C1695.86 73.1406 1696.11 73.0413 1696.29 72.8428C1696.48 72.6442 1696.61 72.3431 1696.69 71.9395C1696.78 71.5358 1696.82 71.0312 1696.82 70.4258C1696.82 69.8268 1696.78 69.3255 1696.7 68.9219C1696.61 68.5182 1696.48 68.2155 1696.3 68.0137C1696.11 67.8086 1695.86 67.7061 1695.55 67.7061C1695.24 67.7061 1694.99 67.8086 1694.8 68.0137C1694.62 68.2155 1694.49 68.5182 1694.41 68.9219C1694.33 69.3255 1694.29 69.8268 1694.29 70.4258ZM1703.7 70.4258C1703.7 71.002 1703.66 71.5179 1703.57 71.9736C1703.48 72.4261 1703.34 72.8102 1703.15 73.126C1702.95 73.4417 1702.7 73.6826 1702.39 73.8486C1702.09 74.0146 1701.71 74.0977 1701.27 74.0977C1700.72 74.0977 1700.27 73.9528 1699.91 73.6631C1699.55 73.3701 1699.29 72.9502 1699.11 72.4033C1698.94 71.8532 1698.85 71.194 1698.85 70.4258C1698.85 69.6576 1698.93 69 1699.09 68.4531C1699.25 67.903 1699.51 67.4814 1699.86 67.1885C1700.22 66.8955 1700.69 66.749 1701.27 66.749C1701.82 66.749 1702.28 66.8955 1702.64 67.1885C1703 67.4782 1703.27 67.8981 1703.44 68.4482C1703.62 68.9951 1703.7 69.6543 1703.7 70.4258ZM1700.01 70.4258C1700.01 71.028 1700.05 71.5309 1700.13 71.9346C1700.21 72.3382 1700.34 72.641 1700.53 72.8428C1700.71 73.0413 1700.96 73.1406 1701.27 73.1406C1701.58 73.1406 1701.83 73.0413 1702.01 72.8428C1702.2 72.6442 1702.33 72.3431 1702.41 71.9395C1702.5 71.5358 1702.54 71.0312 1702.54 70.4258C1702.54 69.8268 1702.5 69.3255 1702.42 68.9219C1702.34 68.5182 1702.2 68.2155 1702.02 68.0137C1701.83 67.8086 1701.58 67.7061 1701.27 67.7061C1700.96 67.7061 1700.71 67.8086 1700.52 68.0137C1700.34 68.2155 1700.21 68.5182 1700.13 68.9219C1700.05 69.3255 1700.01 69.8268 1700.01 70.4258ZM1704.49 71.8027V70.8311H1707.01V71.8027H1704.49ZM1712.65 74H1707.81V73.1357L1709.67 71.2607C1710.02 70.8962 1710.32 70.582 1710.55 70.3184C1710.78 70.0514 1710.95 69.7992 1711.06 69.5615C1711.18 69.3239 1711.23 69.0651 1711.23 68.7852C1711.23 68.4401 1711.13 68.1797 1710.93 68.0039C1710.74 67.8249 1710.47 67.7354 1710.15 67.7354C1709.84 67.7354 1709.55 67.7972 1709.29 67.9209C1709.03 68.0413 1708.76 68.2139 1708.48 68.4385L1707.85 67.6816C1708.05 67.5124 1708.26 67.3577 1708.48 67.2178C1708.71 67.0778 1708.97 66.9671 1709.25 66.8857C1709.53 66.8011 1709.84 66.7588 1710.2 66.7588C1710.65 66.7588 1711.05 66.8402 1711.37 67.0029C1711.7 67.1624 1711.96 67.3854 1712.13 67.6719C1712.31 67.9583 1712.4 68.292 1712.4 68.6729C1712.4 69.057 1712.32 69.4118 1712.17 69.7373C1712.02 70.0628 1711.8 70.3851 1711.52 70.7041C1711.23 71.0199 1710.9 71.3633 1710.5 71.7344L1709.27 72.9404V72.9941H1712.65V74ZM1718.1 68.4922C1718.1 68.8145 1718.03 69.0944 1717.9 69.332C1717.77 69.5697 1717.59 69.765 1717.37 69.918C1717.14 70.0677 1716.88 70.1751 1716.58 70.2402V70.2744C1717.15 70.346 1717.58 70.5251 1717.87 70.8115C1718.17 71.098 1718.31 71.4772 1718.31 71.9492C1718.31 72.3626 1718.21 72.7321 1718.01 73.0576C1717.82 73.3799 1717.51 73.6338 1717.1 73.8193C1716.69 74.0049 1716.16 74.0977 1715.52 74.0977C1715.13 74.0977 1714.77 74.0667 1714.44 74.0049C1714.11 73.943 1713.8 73.8438 1713.5 73.707V72.6865C1713.81 72.8363 1714.13 72.9518 1714.47 73.0332C1714.81 73.1146 1715.14 73.1553 1715.44 73.1553C1716.04 73.1553 1716.46 73.0446 1716.72 72.8232C1716.97 72.5986 1717.1 72.2894 1717.1 71.8955C1717.1 71.6416 1717.03 71.4333 1716.9 71.2705C1716.77 71.1077 1716.56 70.9857 1716.29 70.9043C1716.01 70.8229 1715.66 70.7822 1715.23 70.7822H1714.6V69.8594H1715.23C1715.64 69.8594 1715.98 69.8105 1716.23 69.7129C1716.48 69.612 1716.66 69.4736 1716.77 69.2979C1716.88 69.1221 1716.94 68.917 1716.94 68.6826C1716.94 68.3766 1716.84 68.139 1716.64 67.9697C1716.44 67.7972 1716.15 67.7109 1715.76 67.7109C1715.52 67.7109 1715.3 67.7386 1715.1 67.7939C1714.9 67.8493 1714.72 67.9193 1714.56 68.0039C1714.39 68.0885 1714.23 68.1797 1714.08 68.2773L1713.53 67.4814C1713.8 67.2796 1714.12 67.1087 1714.5 66.9688C1714.87 66.8288 1715.31 66.7588 1715.81 66.7588C1716.54 66.7588 1717.1 66.9167 1717.5 67.2324C1717.9 67.5449 1718.1 67.9648 1718.1 68.4922ZM1719.46 73.3945C1719.46 73.1276 1719.53 72.9404 1719.67 72.833C1719.81 72.7223 1719.98 72.667 1720.18 72.667C1720.38 72.667 1720.55 72.7223 1720.69 72.833C1720.83 72.9404 1720.9 73.1276 1720.9 73.3945C1720.9 73.6549 1720.83 73.8438 1720.69 73.9609C1720.55 74.0749 1720.38 74.1318 1720.18 74.1318C1719.98 74.1318 1719.81 74.0749 1719.67 73.9609C1719.53 73.8438 1719.46 73.6549 1719.46 73.3945ZM1719.46 69.2148C1719.46 68.9447 1719.53 68.7542 1719.67 68.6436C1719.81 68.5329 1719.98 68.4775 1720.18 68.4775C1720.38 68.4775 1720.55 68.5329 1720.69 68.6436C1720.83 68.7542 1720.9 68.9447 1720.9 69.2148C1720.9 69.472 1720.83 69.6592 1720.69 69.7764C1720.55 69.8903 1720.38 69.9473 1720.18 69.9473C1719.98 69.9473 1719.81 69.8903 1719.67 69.7764C1719.53 69.6592 1719.46 69.472 1719.46 69.2148ZM1726.84 70.4258C1726.84 71.002 1726.79 71.5179 1726.7 71.9736C1726.61 72.4261 1726.47 72.8102 1726.28 73.126C1726.09 73.4417 1725.84 73.6826 1725.53 73.8486C1725.22 74.0146 1724.85 74.0977 1724.41 74.0977C1723.86 74.0977 1723.4 73.9528 1723.04 73.6631C1722.69 73.3701 1722.42 72.9502 1722.25 72.4033C1722.08 71.8532 1721.99 71.194 1721.99 70.4258C1721.99 69.6576 1722.07 69 1722.22 68.4531C1722.38 67.903 1722.64 67.4814 1723 67.1885C1723.35 66.8955 1723.82 66.749 1724.41 66.749C1724.96 66.749 1725.42 66.8955 1725.77 67.1885C1726.13 67.4782 1726.4 67.8981 1726.57 68.4482C1726.75 68.9951 1726.84 69.6543 1726.84 70.4258ZM1723.15 70.4258C1723.15 71.028 1723.19 71.5309 1723.26 71.9346C1723.35 72.3382 1723.48 72.641 1723.66 72.8428C1723.85 73.0413 1724.1 73.1406 1724.41 73.1406C1724.72 73.1406 1724.96 73.0413 1725.15 72.8428C1725.33 72.6442 1725.47 72.3431 1725.55 71.9395C1725.63 71.5358 1725.68 71.0312 1725.68 70.4258C1725.68 69.8268 1725.64 69.3255 1725.55 68.9219C1725.47 68.5182 1725.34 68.2155 1725.15 68.0137C1724.97 67.8086 1724.72 67.7061 1724.41 67.7061C1724.09 67.7061 1723.84 67.8086 1723.66 68.0137C1723.48 68.2155 1723.35 68.5182 1723.26 68.9219C1723.19 69.3255 1723.15 69.8268 1723.15 70.4258ZM1732.56 70.4258C1732.56 71.002 1732.51 71.5179 1732.42 71.9736C1732.34 72.4261 1732.2 72.8102 1732 73.126C1731.81 73.4417 1731.56 73.6826 1731.25 73.8486C1730.94 74.0146 1730.57 74.0977 1730.13 74.0977C1729.58 74.0977 1729.12 73.9528 1728.77 73.6631C1728.41 73.3701 1728.14 72.9502 1727.97 72.4033C1727.8 71.8532 1727.71 71.194 1727.71 70.4258C1727.71 69.6576 1727.79 69 1727.95 68.4531C1728.11 67.903 1728.36 67.4814 1728.72 67.1885C1729.07 66.8955 1729.54 66.749 1730.13 66.749C1730.68 66.749 1731.14 66.8955 1731.5 67.1885C1731.86 67.4782 1732.12 67.8981 1732.3 68.4482C1732.47 68.9951 1732.56 69.6543 1732.56 70.4258ZM1728.87 70.4258C1728.87 71.028 1728.91 71.5309 1728.99 71.9346C1729.07 72.3382 1729.2 72.641 1729.39 72.8428C1729.57 73.0413 1729.82 73.1406 1730.13 73.1406C1730.44 73.1406 1730.69 73.0413 1730.87 72.8428C1731.06 72.6442 1731.19 72.3431 1731.27 71.9395C1731.36 71.5358 1731.4 71.0312 1731.4 70.4258C1731.4 69.8268 1731.36 69.3255 1731.28 68.9219C1731.19 68.5182 1731.06 68.2155 1730.88 68.0137C1730.69 67.8086 1730.44 67.7061 1730.13 67.7061C1729.82 67.7061 1729.57 67.8086 1729.38 68.0137C1729.2 68.2155 1729.07 68.5182 1728.99 68.9219C1728.91 69.3255 1728.87 69.8268 1728.87 70.4258ZM1683.79 81.4258C1683.79 82.002 1683.75 82.5179 1683.65 82.9736C1683.57 83.4261 1683.43 83.8102 1683.23 84.126C1683.04 84.4417 1682.79 84.6826 1682.48 84.8486C1682.17 85.0146 1681.8 85.0977 1681.36 85.0977C1680.81 85.0977 1680.36 84.9528 1680 84.6631C1679.64 84.3701 1679.37 83.9502 1679.2 83.4033C1679.03 82.8532 1678.94 82.194 1678.94 81.4258C1678.94 80.6576 1679.02 80 1679.18 79.4531C1679.34 78.903 1679.59 78.4814 1679.95 78.1885C1680.3 77.8955 1680.77 77.749 1681.36 77.749C1681.91 77.749 1682.37 77.8955 1682.73 78.1885C1683.09 78.4782 1683.35 78.8981 1683.53 79.4482C1683.7 79.9951 1683.79 80.6543 1683.79 81.4258ZM1680.1 81.4258C1680.1 82.028 1680.14 82.5309 1680.22 82.9346C1680.3 83.3382 1680.43 83.641 1680.62 83.8428C1680.8 84.0413 1681.05 84.1406 1681.36 84.1406C1681.67 84.1406 1681.92 84.0413 1682.1 83.8428C1682.29 83.6442 1682.42 83.3431 1682.5 82.9395C1682.59 82.5358 1682.63 82.0312 1682.63 81.4258C1682.63 80.8268 1682.59 80.3255 1682.51 79.9219C1682.43 79.5182 1682.29 79.2155 1682.11 79.0137C1681.92 78.8086 1681.67 78.7061 1681.36 78.7061C1681.05 78.7061 1680.8 78.8086 1680.61 79.0137C1680.43 79.2155 1680.3 79.5182 1680.22 79.9219C1680.14 80.3255 1680.1 80.8268 1680.1 81.4258ZM1689.5 80.9033C1689.5 81.3265 1689.47 81.7415 1689.41 82.1484C1689.35 82.5553 1689.25 82.9362 1689.1 83.291C1688.95 83.6458 1688.75 83.96 1688.49 84.2334C1688.23 84.5036 1687.91 84.7152 1687.51 84.8682C1687.12 85.0212 1686.64 85.0977 1686.09 85.0977C1685.95 85.0977 1685.78 85.0895 1685.6 85.0732C1685.42 85.0602 1685.27 85.0407 1685.15 85.0146V84.0576C1685.27 84.0934 1685.41 84.1227 1685.56 84.1455C1685.72 84.165 1685.87 84.1748 1686.03 84.1748C1686.63 84.1748 1687.1 84.0625 1687.43 83.8379C1687.77 83.6133 1688.01 83.304 1688.15 82.9102C1688.29 82.5163 1688.38 82.0687 1688.4 81.5674H1688.34C1688.24 81.7236 1688.12 81.8669 1687.98 81.9971C1687.84 82.124 1687.66 82.2266 1687.45 82.3047C1687.24 82.3796 1686.98 82.417 1686.68 82.417C1686.27 82.417 1685.91 82.3307 1685.6 82.1582C1685.3 81.9857 1685.06 81.735 1684.89 81.4062C1684.73 81.0742 1684.65 80.6755 1684.65 80.21C1684.65 79.7054 1684.74 79.2708 1684.93 78.9062C1685.13 78.5417 1685.4 78.2617 1685.75 78.0664C1686.1 77.8678 1686.51 77.7686 1686.99 77.7686C1687.35 77.7686 1687.68 77.8337 1687.98 77.9639C1688.29 78.0908 1688.55 78.2861 1688.78 78.5498C1689.01 78.8102 1689.19 79.1374 1689.31 79.5312C1689.44 79.9219 1689.5 80.3792 1689.5 80.9033ZM1687 78.7158C1686.64 78.7158 1686.35 78.8379 1686.12 79.082C1685.89 79.3229 1685.78 79.694 1685.78 80.1953C1685.78 80.6022 1685.88 80.9245 1686.07 81.1621C1686.27 81.3997 1686.57 81.5186 1686.97 81.5186C1687.25 81.5186 1687.49 81.4616 1687.69 81.3477C1687.9 81.2305 1688.06 81.0824 1688.17 80.9033C1688.28 80.7243 1688.34 80.542 1688.34 80.3564C1688.34 80.1644 1688.31 79.9723 1688.25 79.7803C1688.2 79.5882 1688.12 79.4124 1688.01 79.2529C1687.9 79.0934 1687.76 78.9648 1687.59 78.8672C1687.42 78.7663 1687.23 78.7158 1687 78.7158ZM1690.61 84.3945C1690.61 84.1276 1690.68 83.9404 1690.81 83.833C1690.95 83.7223 1691.12 83.667 1691.32 83.667C1691.52 83.667 1691.69 83.7223 1691.83 83.833C1691.97 83.9404 1692.04 84.1276 1692.04 84.3945C1692.04 84.6549 1691.97 84.8438 1691.83 84.9609C1691.69 85.0749 1691.52 85.1318 1691.32 85.1318C1691.12 85.1318 1690.95 85.0749 1690.81 84.9609C1690.68 84.8438 1690.61 84.6549 1690.61 84.3945ZM1690.61 80.2148C1690.61 79.9447 1690.68 79.7542 1690.81 79.6436C1690.95 79.5329 1691.12 79.4775 1691.32 79.4775C1691.52 79.4775 1691.69 79.5329 1691.83 79.6436C1691.97 79.7542 1692.04 79.9447 1692.04 80.2148C1692.04 80.472 1691.97 80.6592 1691.83 80.7764C1691.69 80.8903 1691.52 80.9473 1691.32 80.9473C1691.12 80.9473 1690.95 80.8903 1690.81 80.7764C1690.68 80.6592 1690.61 80.472 1690.61 80.2148ZM1697.98 81.4258C1697.98 82.002 1697.93 82.5179 1697.84 82.9736C1697.76 83.4261 1697.62 83.8102 1697.42 84.126C1697.23 84.4417 1696.98 84.6826 1696.67 84.8486C1696.36 85.0146 1695.99 85.0977 1695.55 85.0977C1695 85.0977 1694.54 84.9528 1694.19 84.6631C1693.83 84.3701 1693.56 83.9502 1693.39 83.4033C1693.22 82.8532 1693.13 82.194 1693.13 81.4258C1693.13 80.6576 1693.21 80 1693.37 79.4531C1693.53 78.903 1693.78 78.4814 1694.14 78.1885C1694.49 77.8955 1694.96 77.749 1695.55 77.749C1696.1 77.749 1696.56 77.8955 1696.92 78.1885C1697.28 78.4782 1697.54 78.8981 1697.72 79.4482C1697.89 79.9951 1697.98 80.6543 1697.98 81.4258ZM1694.29 81.4258C1694.29 82.028 1694.33 82.5309 1694.41 82.9346C1694.49 83.3382 1694.62 83.641 1694.81 83.8428C1694.99 84.0413 1695.24 84.1406 1695.55 84.1406C1695.86 84.1406 1696.11 84.0413 1696.29 83.8428C1696.48 83.6442 1696.61 83.3431 1696.69 82.9395C1696.78 82.5358 1696.82 82.0312 1696.82 81.4258C1696.82 80.8268 1696.78 80.3255 1696.7 79.9219C1696.61 79.5182 1696.48 79.2155 1696.3 79.0137C1696.11 78.8086 1695.86 78.7061 1695.55 78.7061C1695.24 78.7061 1694.99 78.8086 1694.8 79.0137C1694.62 79.2155 1694.49 79.5182 1694.41 79.9219C1694.33 80.3255 1694.29 80.8268 1694.29 81.4258ZM1703.7 81.4258C1703.7 82.002 1703.66 82.5179 1703.57 82.9736C1703.48 83.4261 1703.34 83.8102 1703.15 84.126C1702.95 84.4417 1702.7 84.6826 1702.39 84.8486C1702.09 85.0146 1701.71 85.0977 1701.27 85.0977C1700.72 85.0977 1700.27 84.9528 1699.91 84.6631C1699.55 84.3701 1699.29 83.9502 1699.11 83.4033C1698.94 82.8532 1698.85 82.194 1698.85 81.4258C1698.85 80.6576 1698.93 80 1699.09 79.4531C1699.25 78.903 1699.51 78.4814 1699.86 78.1885C1700.22 77.8955 1700.69 77.749 1701.27 77.749C1701.82 77.749 1702.28 77.8955 1702.64 78.1885C1703 78.4782 1703.27 78.8981 1703.44 79.4482C1703.62 79.9951 1703.7 80.6543 1703.7 81.4258ZM1700.01 81.4258C1700.01 82.028 1700.05 82.5309 1700.13 82.9346C1700.21 83.3382 1700.34 83.641 1700.53 83.8428C1700.71 84.0413 1700.96 84.1406 1701.27 84.1406C1701.58 84.1406 1701.83 84.0413 1702.01 83.8428C1702.2 83.6442 1702.33 83.3431 1702.41 82.9395C1702.5 82.5358 1702.54 82.0312 1702.54 81.4258C1702.54 80.8268 1702.5 80.3255 1702.42 79.9219C1702.34 79.5182 1702.2 79.2155 1702.02 79.0137C1701.83 78.8086 1701.58 78.7061 1701.27 78.7061C1700.96 78.7061 1700.71 78.8086 1700.52 79.0137C1700.34 79.2155 1700.21 79.5182 1700.13 79.9219C1700.05 80.3255 1700.01 80.8268 1700.01 81.4258ZM1704.49 82.8027V81.8311H1707.01V82.8027H1704.49ZM1712.65 85H1707.81V84.1357L1709.67 82.2607C1710.02 81.8962 1710.32 81.582 1710.55 81.3184C1710.78 81.0514 1710.95 80.7992 1711.06 80.5615C1711.18 80.3239 1711.23 80.0651 1711.23 79.7852C1711.23 79.4401 1711.13 79.1797 1710.93 79.0039C1710.74 78.8249 1710.47 78.7354 1710.15 78.7354C1709.84 78.7354 1709.55 78.7972 1709.29 78.9209C1709.03 79.0413 1708.76 79.2139 1708.48 79.4385L1707.85 78.6816C1708.05 78.5124 1708.26 78.3577 1708.48 78.2178C1708.71 78.0778 1708.97 77.9671 1709.25 77.8857C1709.53 77.8011 1709.84 77.7588 1710.2 77.7588C1710.65 77.7588 1711.05 77.8402 1711.37 78.0029C1711.7 78.1624 1711.96 78.3854 1712.13 78.6719C1712.31 78.9583 1712.4 79.292 1712.4 79.6729C1712.4 80.057 1712.32 80.4118 1712.17 80.7373C1712.02 81.0628 1711.8 81.3851 1711.52 81.7041C1711.23 82.0199 1710.9 82.3633 1710.5 82.7344L1709.27 83.9404V83.9941H1712.65V85ZM1716.91 85H1715.76V80.4053C1715.76 80.2523 1715.76 80.0993 1715.76 79.9463C1715.77 79.7933 1715.77 79.6436 1715.77 79.4971C1715.78 79.3506 1715.79 79.2106 1715.8 79.0771C1715.73 79.152 1715.64 79.2334 1715.54 79.3213C1715.45 79.4092 1715.34 79.5003 1715.23 79.5947L1714.41 80.249L1713.83 79.5215L1715.95 77.8613H1716.91V85ZM1719.46 84.3945C1719.46 84.1276 1719.53 83.9404 1719.67 83.833C1719.81 83.7223 1719.98 83.667 1720.18 83.667C1720.38 83.667 1720.55 83.7223 1720.69 83.833C1720.83 83.9404 1720.9 84.1276 1720.9 84.3945C1720.9 84.6549 1720.83 84.8438 1720.69 84.9609C1720.55 85.0749 1720.38 85.1318 1720.18 85.1318C1719.98 85.1318 1719.81 85.0749 1719.67 84.9609C1719.53 84.8438 1719.46 84.6549 1719.46 84.3945ZM1719.46 80.2148C1719.46 79.9447 1719.53 79.7542 1719.67 79.6436C1719.81 79.5329 1719.98 79.4775 1720.18 79.4775C1720.38 79.4775 1720.55 79.5329 1720.69 79.6436C1720.83 79.7542 1720.9 79.9447 1720.9 80.2148C1720.9 80.472 1720.83 80.6592 1720.69 80.7764C1720.55 80.8903 1720.38 80.9473 1720.18 80.9473C1719.98 80.9473 1719.81 80.8903 1719.67 80.7764C1719.53 80.6592 1719.46 80.472 1719.46 80.2148ZM1726.84 81.4258C1726.84 82.002 1726.79 82.5179 1726.7 82.9736C1726.61 83.4261 1726.47 83.8102 1726.28 84.126C1726.09 84.4417 1725.84 84.6826 1725.53 84.8486C1725.22 85.0146 1724.85 85.0977 1724.41 85.0977C1723.86 85.0977 1723.4 84.9528 1723.04 84.6631C1722.69 84.3701 1722.42 83.9502 1722.25 83.4033C1722.08 82.8532 1721.99 82.194 1721.99 81.4258C1721.99 80.6576 1722.07 80 1722.22 79.4531C1722.38 78.903 1722.64 78.4814 1723 78.1885C1723.35 77.8955 1723.82 77.749 1724.41 77.749C1724.96 77.749 1725.42 77.8955 1725.77 78.1885C1726.13 78.4782 1726.4 78.8981 1726.57 79.4482C1726.75 79.9951 1726.84 80.6543 1726.84 81.4258ZM1723.15 81.4258C1723.15 82.028 1723.19 82.5309 1723.26 82.9346C1723.35 83.3382 1723.48 83.641 1723.66 83.8428C1723.85 84.0413 1724.1 84.1406 1724.41 84.1406C1724.72 84.1406 1724.96 84.0413 1725.15 83.8428C1725.33 83.6442 1725.47 83.3431 1725.55 82.9395C1725.63 82.5358 1725.68 82.0312 1725.68 81.4258C1725.68 80.8268 1725.64 80.3255 1725.55 79.9219C1725.47 79.5182 1725.34 79.2155 1725.15 79.0137C1724.97 78.8086 1724.72 78.7061 1724.41 78.7061C1724.09 78.7061 1723.84 78.8086 1723.66 79.0137C1723.48 79.2155 1723.35 79.5182 1723.26 79.9219C1723.19 80.3255 1723.15 80.8268 1723.15 81.4258ZM1732.56 81.4258C1732.56 82.002 1732.51 82.5179 1732.42 82.9736C1732.34 83.4261 1732.2 83.8102 1732 84.126C1731.81 84.4417 1731.56 84.6826 1731.25 84.8486C1730.94 85.0146 1730.57 85.0977 1730.13 85.0977C1729.58 85.0977 1729.12 84.9528 1728.77 84.6631C1728.41 84.3701 1728.14 83.9502 1727.97 83.4033C1727.8 82.8532 1727.71 82.194 1727.71 81.4258C1727.71 80.6576 1727.79 80 1727.95 79.4531C1728.11 78.903 1728.36 78.4814 1728.72 78.1885C1729.07 77.8955 1729.54 77.749 1730.13 77.749C1730.68 77.749 1731.14 77.8955 1731.5 78.1885C1731.86 78.4782 1732.12 78.8981 1732.3 79.4482C1732.47 79.9951 1732.56 80.6543 1732.56 81.4258ZM1728.87 81.4258C1728.87 82.028 1728.91 82.5309 1728.99 82.9346C1729.07 83.3382 1729.2 83.641 1729.39 83.8428C1729.57 84.0413 1729.82 84.1406 1730.13 84.1406C1730.44 84.1406 1730.69 84.0413 1730.87 83.8428C1731.06 83.6442 1731.19 83.3431 1731.27 82.9395C1731.36 82.5358 1731.4 82.0312 1731.4 81.4258C1731.4 80.8268 1731.36 80.3255 1731.28 79.9219C1731.19 79.5182 1731.06 79.2155 1730.88 79.0137C1730.69 78.8086 1730.44 78.7061 1730.13 78.7061C1729.82 78.7061 1729.57 78.8086 1729.38 79.0137C1729.2 79.2155 1729.07 79.5182 1728.99 79.9219C1728.91 80.3255 1728.87 80.8268 1728.87 81.4258Z" fill="white"/>
</svg>
